<?xml version="1.0" standalone="no"?>
<!DOCTYPE svg PUBLIC "-//W3C//DTD SVG 1.1//EN" "http://www.w3.org/Graphics/SVG/1.1/DTD/svg11.dtd" >
<!--
2013-9-30: Created.
-->
<svg>
<metadata>
Created by iconfont
</metadata>
<defs>

<font id="iconfont" horiz-adv-x="1024" >
  <font-face
    font-family="iconfont"
    font-weight="500"
    font-stretch="normal"
    units-per-em="1024"
    ascent="896"
    descent="-128"
  />
    <missing-glyph />
    
    <glyph glyph-name="x" unicode="x" horiz-adv-x="1001"
d="M281 543q-27 -1 -53 -1h-83q-18 0 -36.5 -6t-32.5 -18.5t-23 -32t-9 -45.5v-76h912v41q0 16 -0.5 30t-0.5 18q0 13 -5 29t-17 29.5t-31.5 22.5t-49.5 9h-133v-97h-438v97zM955 310v-52q0 -23 0.5 -52t0.5 -58t-10.5 -47.5t-26 -30t-33 -16t-31.5 -4.5q-14 -1 -29.5 -0.5
t-29.5 0.5h-32l-45 128h-439l-44 -128h-29h-34q-20 0 -45 1q-25 0 -41 9.5t-25.5 23t-13.5 29.5t-4 30v167h911zM163 247q-12 0 -21 -8.5t-9 -21.5t9 -21.5t21 -8.5q13 0 22 8.5t9 21.5t-9 21.5t-22 8.5zM316 123q-8 -26 -14 -48q-5 -19 -10.5 -37t-7.5 -25t-3 -15t1 -14.5
t9.5 -10.5t21.5 -4h37h67h81h80h64h36q23 0 34 12t2 38q-5 13 -9.5 30.5t-9.5 34.5q-5 19 -11 39h-368zM336 498v228q0 11 2.5 23t10 21.5t20.5 15.5t34 6h188q31 0 51.5 -14.5t20.5 -52.5v-227h-327z" />
    

    
    <glyph glyph-name="daipingjia" unicode="&#59236;" d="M788.139178 476.158069 785.612635 476.158069 778.029936 476.158069 767.796874 476.158069 767.796874-116.644235 94.759177-116.644235 94.759177 560.437567 688.466084 560.437567 688.466084 591.012933 64.183811 591.012933 64.183811-147.218578 798.373263-147.218578 798.373263 476.158069 788.139178 476.158069ZM390.385175 263.223399l-2.90619-2.891863-29.684066-109.886713 110.929462 28.16241 443.61961 441.73161-81.310887 81.657788L390.385175 263.223399zM453.084169 206.182264 451.128631 205.685961l-36.307927 38.620599 0.037862 0.13917L830.941006 658.756827l38.162158-38.324864L453.084169 206.182264zM894.486274 747.913403 838.042751 708.617421 919.987065 626.844 959.165366 683.369388Z"  horiz-adv-x="1024" />

    
    <glyph glyph-name="suoyoudingdan" unicode="&#58894;" d="M426.543188 537.341546 625.455493 537.341546c15.066137 0 27.305903 9.770528 27.305903 21.74628 0 11.975752-12.239765 21.723767-27.305903 21.723767L426.543188 580.811594c-15.064091 0-27.279297-9.746992-27.279297-21.723767C399.263891 547.111051 411.479097 537.341546 426.543188 537.341546zM925.848051-107.393547 125.312542-107.393547c-9.340739 0-16.909112 6.848988-16.909112 15.255449L108.40343 724.133813c0 8.455579 7.591909 15.280008 16.909112 15.280008l800.512996 0c9.362228 0 16.933671-6.848988 16.933671-15.280008l0-816.272935C942.759209-100.568095 935.18879-107.393547 925.848051-107.393547zM138.723993 762.814788c-31.950689 0-57.96211-23.472598-57.96211-52.332902l0-788.969079c0-28.860305 26.01142-52.332902 57.96211-52.332902l773.71056 0c31.952736 0 57.963133 23.472598 57.963133 52.332902l0 788.969079c0 28.860305-26.010397 52.332902-57.963133 52.332902L138.723993 762.814788zM279.00597 404.772228l-24.02416 0c-10.872628 0-19.639293-6.825452-19.639293-15.280008 0-8.43102 8.766664-15.257495 19.639293-15.257495l24.02416 0c10.896164 0 19.711947 6.826476 19.711947 15.257495C298.717917 397.969289 289.903158 404.772228 279.00597 404.772228zM279.00597 251.174991l-24.02416 0c-10.872628 0-19.639293-6.850012-19.639293-15.282055 0-8.429996 8.766664-15.281031 19.639293-15.281031l24.02416 0c10.896164 0 19.711947 6.848988 19.711947 15.281031S289.903158 251.174991 279.00597 251.174991zM279.00597 97.552172l-24.02416 0c-10.872628 0-19.639293-6.77531-19.639293-15.255449 0-8.429996 8.766664-15.280008 19.639293-15.280008l24.02416 0c10.896164 0 19.711947 6.847965 19.711947 15.280008C298.717917 90.751279 289.903158 97.552172 279.00597 97.552172zM777.377578 97.552172 362.043175 97.552172c-10.82658 0-19.687388-6.77531-19.687388-15.255449 0-8.429996 8.860808-15.280008 19.687388-15.280008l415.334403 0c10.851139 0 19.664875 6.847965 19.664875 15.280008C797.04143 90.751279 788.227694 97.552172 777.377578 97.552172zM777.377578 250.671525 362.043175 250.671525c-10.82658 0-19.687388-6.873548-19.687388-15.280008 0-8.43102 8.860808-15.283078 19.687388-15.283078l415.334403 0c10.851139 0 19.664875 6.850012 19.664875 15.283078C797.04143 243.797977 788.227694 250.671525 777.377578 250.671525zM777.377578 404.268762 362.043175 404.268762c-10.82658 0-19.687388-6.848988-19.687388-15.255449 0-8.456602 8.860808-15.304568 19.687388-15.304568l415.334403 0c10.851139 0 19.664875 6.847965 19.664875 15.304568C797.04143 397.41875 788.227694 404.268762 777.377578 404.268762z"  horiz-adv-x="1024" />

    
    <glyph glyph-name="daipingjia1" unicode="&#58890;" d="M255.809153-50.823134c-39.865963 0-72.29863 32.432667-72.29863 72.297606L183.510524 520.667795c0 36.216853 26.764574 66.297962 61.553914 71.502497l0 0 13.462616 0.737804c0.403183 0.038886 0.794086 0.059352 1.165546 0.059352l289.615097 0c6.488785 0 11.768021-5.279237 11.768021-11.768021s-5.279237-11.768021-11.768021-11.768021L259.691577 569.431406c-0.370437 0-0.762363 0.020466-1.165546 0.059352l-13.462616-1.251503 0 0c-21.735024-4.907777-38.017872-24.373107-38.017872-47.570435l0-499.193323c0-26.88737 21.875217-48.761564 48.762587-48.761564l536.864294 0c26.88737 0 48.762587 21.874193 48.762587 48.761564L841.435011 300.976234c0 6.488785 5.279237 11.768021 11.768021 11.768021s11.768021-5.279237 11.768021-11.768021l0-279.501762c0-39.86494-32.432667-72.297606-72.29863-72.297606L255.809153-50.823134zM386.6849 87.601542c-3.225461 0-11.792581 0-17.268292 5.475711-5.455245 5.456269-6.577812 14.414291-4.000104 31.949666 1.503237 10.220782 4.323469 23.589254 8.379854 39.733956 6.812149 27.096125 14.732539 52.628638 15.06716 53.702086l0.862647 2.772136 349.028255 349.028255 40.34794 47.585785 0.296759 0.296759c6.201236 6.200212 14.681374 9.614985 23.877827 9.614985 10.627035 0 21.310352-4.587482 29.311583-12.58769l58.165748-58.166771c7.248078-7.248078 11.6749-16.572444 12.463869-26.254967 0.828878-10.18599-2.580778-19.942191-9.359158-26.800389l-0.812505-0.760317-46.411029-40.674375L497.566266 113.446164l-2.732228-0.867764C465.624786 103.302129 409.977395 87.601542 386.6849 87.601542zM409.53635 205.60819c-8.705266-28.680203-16.540721-59.408041-19.963681-78.281901l-3.143597-17.33583 17.353227 3.051499c22.073738 3.8814 54.876842 12.969383 78.216409 20.180622l19.462261 6.011924-85.975117 85.975117L409.53635 205.60819zM437.876816 236.101691l74.529437-74.529437 292.741297 292.741297-62.797231 62.794162-0.276293 0.317225-0.322341 0.283456-11.134595 11.134595L437.876816 236.101691zM752.132102 549.65192l1.155313-5.814426c0.700965-3.524267 2.62171-7.001461 5.41022-9.78997l51.659567-51.658544c2.816139-2.812045 6.321986-4.733814 9.875928-5.417383l5.973038-1.14815 4.64888 4.157693 50.268894 44.055378-1.762133 7.232728c-0.808412 3.322675-2.623757 6.466272-5.251607 9.094122l-58.167794 58.166771c-3.244904 3.243881-6.625908 4.619204-8.890484 5.200442l-7.448646 1.914606L752.132102 549.65192z"  horiz-adv-x="1024" />

    
    <glyph glyph-name="ditudizhi" unicode="&#58920;" d="M627.7 529c0 64.8-51.9 117.4-115.7 117.4S396.3 593.8 396.3 529 448.2 411.6 512 411.6 627.7 464.3 627.7 529zM586.7 529c0-41.9-33.5-76-74.6-76s-74.6 34.1-74.6 76 33.5 76 74.6 76c19.8 0 38.4-7.8 52.5-21.9C578.8 568.7 586.7 549.5 586.7 529zM486.9 86.8c5.9-8.6 15.3-13.7 25.2-13.7 10 0 19.4 5.1 25.2 13.7l11.8 17.3c66.8 98.2 205.8 302.5 205.7 424.9 0 135.9-108.8 246.4-242.6 246.4-133.8 0-242.7-110.6-242.7-246.4 0-122.2 138.5-326 205.1-424L486.9 86.8zM310.3 529c0 112.9 90.5 204.8 201.7 204.8S713.7 642 713.7 529c0-109.5-138.9-313.7-198.2-400.9L512 123l-3.4 5C449.3 215.2 310.3 419.5 310.3 529zM624.1 146.8c0 0-11.9 2.1-11.9-11.4 0-11.8 9.4-13.6 9.4-13.6 41.6-13.4 60.2-31.7 60.2-44 0-19-67.8-47.7-169.9-47.7s-169.9 28.7-169.9 47.7c0 12.3 18.6 30.6 60.2 44 0 0 9.4 1.3 9.4 13.7 0 15.2-11.9 11.3-11.9 11.3-76.1-17.2-114.7-40.4-114.7-69 0-47.8 99.6-85.2 226.8-85.2 127.2 0 226.8 37.4 226.8 85.2C738.8 106.5 700.2 129.7 624.1 146.8z"  horiz-adv-x="1024" />

    
    <glyph glyph-name="zoom" unicode="&#58893;" d="M410.441 158.563c-185.988 0-337.304 151.315-337.304 337.304s151.315 337.304 337.304 337.304c185.989 0 337.304-151.315 337.304-337.304s-151.315-337.304-337.304-337.304zM410.441 781.526c-157.519 0-285.659-128.147-285.659-285.659s128.14-285.659 285.659-285.659c157.519 0 285.659 128.148 285.659 285.659s-128.141 285.659-285.659 285.659zM922.991-60.933c-6.606 0-13.214 2.521-18.257 7.565l-301.711 301.715c-10.086 10.082-10.086 26.434 0 36.516 10.087 10.086 26.428 10.086 36.516 0l301.71-301.717c10.086-10.074 10.086-26.428 0-36.515-5.044-5.043-11.65-7.564-18.258-7.564z"  horiz-adv-x="1024" />

    
    <glyph glyph-name="jiedanrenxinxi" unicode="&#59496;" d="M511.726266 831.995267c-247.286036 0-447.75479-200.467731-447.75479-447.755814 0-247.291153 200.467731-447.758883 447.75479-447.758883 247.290129 0 447.759907 200.466708 447.759907 447.758883C959.486172 631.527536 759.016395 831.995267 511.726266 831.995267zM511.726266-21.542386c-223.746924 0-405.77877 182.031846-405.77877 405.78184 0 223.747947 182.031846 405.779793 405.77877 405.779793 223.751017 0 405.782863-182.031846 405.782863-405.779793C917.509129 160.48946 735.478306-21.542386 511.726266-21.542386zM597.916277 349.95051c56.982806 30.717605 95.711875 90.943268 95.711875 160.220075 0 100.458993-81.4388 181.901887-181.901887 181.901887-100.460016 0-181.897793-81.44187-181.897793-181.901887 0-69.27783 38.72907-129.502469 95.711875-160.220075-91.232864-28.841885-164.581406-102.351086-190.612269-198.075241-3.047406-11.18576 3.549849-22.716374 14.742772-25.758664 1.843998-0.506537 3.687996-0.74599 5.519714-0.74599 9.240455 0 17.698081 6.15007 20.237927 15.489786C304.327682 247.082654 401.497769 321.272353 511.726266 321.272353c110.233614 0 207.402677-74.185606 236.302891-180.40479 3.046383-11.19497 14.620999-17.811668 25.75764-14.741749 11.1919 3.038196 17.789155 14.572904 14.742772 25.758664C762.497683 247.600447 689.145048 321.109648 597.916277 349.95051zM371.804493 510.171608c0 77.154217 62.766532 139.92075 139.921773 139.92075 77.158311 0 139.925866-62.766532 139.925866-139.92075s-62.767556-139.92689-139.925866-139.92689C434.571025 370.244718 371.804493 433.01739 371.804493 510.171608z"  horiz-adv-x="1024" />

    
    <glyph glyph-name="dianjishangchuan" unicode="&#58887;" d="M0 399.515152l1024 0 0-31.030303-1024 0 0 31.030303ZM527.515152 896l0-1024-31.030303 0 0 1024 31.030303 0Z"  horiz-adv-x="1024" />

    
    <glyph glyph-name="shouji" unicode="&#58946;" d="M709.284404-34.055046 314.715596-34.055046C262.829798-34.055046 220.770642 8.00411 220.770642 59.889908L220.770642 708.110092C220.770642 759.99589 262.829798 802.055046 314.715596 802.055046L709.284404 802.055046C761.165505 802.055046 803.229358 759.99589 803.229358 708.110092L803.229358 59.889908C803.229358 8.00411 761.165505-34.055046 709.284404-34.055046ZM775.045872 708.110092C775.045872 744.429211 745.603523 773.87156 709.284404 773.87156L314.715596 773.87156C278.396477 773.87156 248.954128 744.429211 248.954128 708.110092L248.954128 665.834862 775.045872 665.834862 775.045872 708.110092ZM775.045872 637.651376 248.954128 637.651376 248.954128 158.53211 775.045872 158.53211 775.045872 637.651376ZM775.045872 130.348624 248.954128 130.348624 248.954128 59.889908C248.954128 23.570789 278.396477-5.87156 314.715596-5.87156L709.284404-5.87156C745.603523-5.87156 775.045872 23.570789 775.045872 59.889908L775.045872 130.348624ZM512 31.706422C491.24756 31.706422 474.422018 48.531963 474.422018 69.284404 474.422018 90.036844 491.24756 106.862385 512 106.862385 532.75244 106.862385 549.577982 90.036844 549.577982 69.284404 549.577982 48.531963 532.75244 31.706422 512 31.706422Z"  horiz-adv-x="1024" />

    
    <glyph glyph-name="icongroup04" unicode="&#58883;" d="M213.5 359.55h355.050c14.85 0 27.27 12.51 27.27 27.51 0 14.97-12.42 27.48-27.27 27.48h-355.050c-14.85 0-27.24-12.51-27.24-27.48 0-15 12.39-27.51 27.24-27.51zM213.5 144.75h142.020c14.85 0 27.27 12.51 27.27 27.51s-12.42 27.51-27.27 27.51h-142.020c-14.85 0-27.24-12.51-27.24-27.51s12.39-27.51 27.24-27.51zM352.13 574.32h216.42c14.85 0 27.27 12.51 27.27 27.48s-12.42 27.51-27.27 27.51h-355.050c-14.85 0-27.24-12.51-27.24-27.51s12.39-27.48 27.24-27.48h138.63zM848.96 773.76c-15.81 26.76-40.53 45.78-69.12 56.76-19.14 7.35-39.27 7.56-59.37 7.56h-538.35c-17.64 0-34.74 0.060-52.17-4.35-57.060-14.43-97.95-69.27-97.95-128.16v-639.090c0-38.52 14.16-75.63 42.81-101.79 23.22-21.24 52.62-32.94 83.85-34.59 6.12-0.33 12.3-0.090 18.42-0.090h237.24c14.88 0 27.27 12.51 27.27 27.51 0 14.97-12.39 27.48-27.27 27.48h-250.56c-2.76 0-5.52 0.090-8.22 0.3-0.63 0.030-1.29 0.090-1.92 0.18 2.070-0.27 3.96-0.48-2.76 0.3 0.9-0.090 1.86-0.21 2.76-0.3-0.6 0.060-1.2 0.15-1.65 0.24-3.51 0.63-6.99 1.5-10.44 2.49-2.76 0.78-5.43 1.74-8.1 2.76 0.15-0.060 0.3-0.15 0.48-0.24 5.13-2.31-6.24 2.43-0.96 0.42 0.15-0.060 0.33-0.12 0.51-0.18-1.2 0.57-2.4 1.14-3.57 1.74-2.7 1.29-5.28 2.82-7.83 4.41-1.32 0.84-5.82 4.17-6.75 4.77 0.84-0.72 1.71-1.44 2.58-2.13-2.55 2.010-3.090 2.46-2.58 2.13-3.66 3.12-7.080 6.54-10.35 10.14-0.87 0.96-1.71 1.98-2.52 3 0.090-0.12 0.18-0.27 0.27-0.42 3.3-4.5-4.17 5.13-0.63 0.84 0.12-0.12 0.24-0.27 0.36-0.42-1.95 2.67-3.75 5.49-5.43 8.37-1.53 2.58-2.91 5.25-4.2 7.98-0.15 0.3-0.33 0.69-0.51 1.11 0.27-0.69 0.54-1.41 0.81-2.13-2.7 6.54-1.71 4.11-0.81 2.13-0.27 0.69-0.54 1.41-0.78 2.13-1.83 5.070-3.15 10.29-4.17 15.6 0.090-0.42-0.090 0.45-0.63 3.78 0.21-1.26 0.45-2.55 0.66-3.81 0 0.72-0.66 5.94-0.75 7.5-0.090 1.59-0.090 3.21-0.090 4.83v643.080c0 2.13 0.060 4.29 0.18 6.39 0.060 1.35 0.21 2.7 0.33 4.050-0.030-0.15-0.060-0.27-0.060-0.42-0.93-5.76 0.69 6.96 0.12 1.11 0-0.21-0.030-0.45-0.060-0.66 1.050 6.42 2.82 12.72 5.040 18.87 0.090 0.24 0.21 0.57 0.33 0.9-0.27-0.6-0.57-1.23-0.81-1.83 2.91 6.72 1.65 3.87 0.81 1.83 0.33 0.75 0.72 1.5 1.080 2.25 1.29 2.7 2.79 5.34 4.32 7.92 1.44 2.43 3.030 4.77 4.65 7.080-0.12-0.15-0.24-0.3-0.36-0.42-3.48-4.35 3.87 5.4 0.63 0.84-0.12-0.15-0.18-0.3-0.27-0.42 1.14 1.41 2.31 2.76 3.51 4.080 1.98 2.22 4.14 4.32 6.3 6.33 0.9 0.84 3.93 3.3 5.040 4.26-0.9-0.63-1.77-1.23-2.58-1.89 3.18 2.46 3.45 2.61 2.58 1.89 4.38 3.15 9.060 5.91 13.89 8.34 0.6 0.3 1.23 0.6 1.83 0.9-0.36-0.15-0.69-0.3-0.99-0.45-1.47-0.63-0.96-0.42 0 0 0.63 0.3 1.65 0.75 3.21 1.47-0.72-0.33-1.47-0.69-2.22-1.020 0.48 0.21 0.93 0.39 1.29 0.54 2.85 1.11 5.73 1.98 8.64 2.82 2.97 0.81 5.94 1.47 8.97 2.040 0.3 0.060 0.66 0.12 1.080 0.18-0.72-0.060-1.47-0.15-2.19-0.24 7.35 0.96 4.38 0.6 2.19 0.24 1.35 0.12 2.7 0.24 4.050 0.33 2.55 0.15 5.1 0.18 7.65 0.18h571.2c0.63 0 1.29 0 1.95 0 2.94 0 5.85-0.24 8.76-0.51-0.12 0.030-0.27 0.060-0.42 0.090-5.73 0.9 6.87-0.72 1.080-0.15-0.24 0-0.45 0.030-0.66 0.060 1.89-0.3 3.75-0.69 5.64-1.11 3-0.66 5.91-1.53 8.82-2.46 1.2-0.39 4.83-1.86 6.27-2.4-0.96 0.48-1.92 0.96-2.94 1.38 3.78-1.65 4.020-1.8 2.94-1.38 4.86-2.34 9.51-5.070 14.010-8.13 0.54-0.36 1.050-0.72 1.56-1.11-0.45 0.33-0.87 0.66-1.17 0.9-0.57 0.42-0.42 0.33 0 0 0.48-0.36 1.47-1.080 3.21-2.43-0.66 0.51-1.35 1.020-2.040 1.53 0.45-0.33 0.87-0.69 1.17-0.93 2.28-1.92 4.44-3.96 6.57-6.060s4.080-4.32 6-6.6c0.15-0.18 0.36-0.45 0.6-0.72-0.39 0.54-0.75 1.080-1.17 1.59 4.38-5.76 2.52-3.27 1.17-1.59 0.75-1.080 1.53-2.19 2.25-3.27 2.64-3.96 4.95-8.13 6.99-12.39-0.060 0.21 0.36-0.63 1.62-3.42-0.54 1.17-1.050 2.31-1.62 3.42 0.090-0.42 2.1-5.34 2.61-6.81 1.11-3.42 1.98-6.87 2.76-10.41 0.3-1.38 0.54-2.76 0.78-4.14-0.030 0.21-0.060 0.45-0.090 0.66-0.63 5.85 1.14-6.87 0.15-1.080-0.030 0.12-0.060 0.27-0.060 0.42 0.3-2.94 0.45-5.91 0.51-8.85 0-0.75 0-1.47 0-2.25v-183c0-15 12.39-27.48 27.27-27.48 14.85 0 27.27 12.51 27.27 27.48v183.15c-0.030 24.060-6.48 47.97-18.75 68.67zM941.21 111.6h-55.77l-108.84 146.82c44.79 15.21 77.13 55.98 77.13 104.28 0 61.2-51.63 111-115.11 111-63.51 0-115.14-49.8-115.14-111 0-48.3 32.37-89.070 77.16-104.28l-108.87-146.82h-55.74c-28.050 0-50.82-21.96-50.82-48.99v-78.96c0-27.030 22.8-49.020 50.82-49.020h405.12c28.020 0.030 50.85 21.99 50.85 49.050v78.96c0.030 26.97-22.77 48.96-50.79 48.96M667.070 362.7c0 38.040 32.040 69 71.55 69 39.45 0 71.55-30.93 71.55-69 0-37.8-31.74-68.55-70.89-68.91h-1.38c-39.090 0.36-70.83 31.080-70.83 68.91M731.9 228.33l12.84 0.78 87.12-117.51h-186.51l86.55 116.73M948.47-16.35c0-3.81-3.3-6.99-7.26-6.99h-405.18c-3.93 0-7.23 3.18-7.23 6.99v78.93c0 3.81 3.3 6.99 7.23 6.99h405.21c3.93 0 7.26-3.18 7.26-6.99l-0.030-78.93z"  horiz-adv-x="1025" />

    
    <glyph glyph-name="daishouhuo" unicode="&#58881;" d="M451.562667 524.437333h-32v-188.437333H119.104v-32h332.458667zM981.333333 778.666667H419.541333v-145.770667h-192c-153.962667 0-187.904-190.976-188.224-192.896l-0.213333-349.333333h22.229333v-1.344h181.376c3.52-61.866667 54.826667-111.189333 117.589334-111.189334s114.090667 49.322667 117.589333 111.189334H631.466667c3.52-61.866667 54.848-111.189333 117.610666-111.189334s114.090667 49.322667 117.610667 111.189334h105.984v1.344H981.333333V778.666667zM71.104 131.989333V435.882667c2.901333 15.04 34.986667 165.013333 156.437333 165.013333h224V746.666667H949.333333V121.301333h-85.098666c-11.605333 52.906667-58.816 92.693333-115.136 92.693334s-103.552-39.765333-115.136-92.693334h-158.485334c-11.605333 52.906667-58.794667 92.693333-115.136 92.693334s-103.552-39.765333-115.136-92.693334H71.104v10.688z m289.216-121.834666a86.016 86.016 0 0 0-85.930667 85.909333c0 47.402667 38.549333 85.952 85.930667 85.952s85.930667-38.570667 85.930667-85.952a86.016 86.016 0 0 0-85.930667-85.909333z m388.757333 0a86.016 86.016 0 0 0-85.930666 85.909333c0 47.402667 38.549333 85.952 85.930666 85.952s85.930667-38.570667 85.930667-85.952a85.973333 85.973333 0 0 0-85.930667-85.909333z"  horiz-adv-x="1024" />

    
    <glyph glyph-name="fangdajing" unicode="&#58903;" d="M434.559 94.674c-49.755 0-98.032 9.749-143.491 28.976-43.898 18.567-83.317 45.144-117.164 78.991-33.847 33.847-60.423 73.267-78.99 117.164-19.228 45.458-28.977 93.736-28.977 143.49s9.749 98.032 28.976 143.491c18.567 43.898 45.144 83.317 78.99 117.164 33.847 33.847 73.267 60.423 117.164 78.99 45.458 19.227 93.736 28.976 143.491 28.976s98.032-9.749 143.49-28.976c43.897-18.567 83.317-45.143 117.164-78.99s60.423-73.268 78.991-117.164c19.227-45.458 28.976-93.736 28.976-143.491s-9.749-98.032-28.976-143.491c-18.567-43.897-45.144-83.317-78.991-117.164s-73.267-60.423-117.164-78.991c-45.457-19.226-93.734-28.975-143.489-28.975zM434.559 791.127c-180.766 0-327.831-147.064-327.831-327.831s147.065-327.831 327.831-327.831c180.766 0 327.831 147.065 327.831 327.831s-147.065 327.831-327.831 327.831zM958.063-25.896c0 0-3.248-3.601-17.053-16.584-9.998-9.783-14.63-14.152-22.118-21.438l-213.613 214.907-17.793 54.154 57.537-16.708 213.042-214.33z"  horiz-adv-x="1024" />

    
    <glyph glyph-name="daifukuan" unicode="&#59016;" d="M536.576-62.6688H147.5584c-56.7296 0-102.7072 45.9776-102.7072 102.7072V793.1904C44.7488 849.8176 90.8288 896 147.5584 896h636.1088c56.6272 0 102.7072-46.1824 102.7072-102.8096v-464.896c0-8.9088-7.3728-16.384-16.4864-16.384-9.1136 0-16.5888 7.4752-16.5888 16.384v464.896c0 38.5024-31.1296 69.7344-69.632 69.7344H147.5584c-38.4 0-69.7344-31.232-69.7344-69.7344V39.936c0-38.5024 31.3344-69.632 69.7344-69.632H536.576c9.0112 0 16.4864-7.4752 16.4864-16.4864 0-9.1136-7.3728-16.4864-16.4864-16.4864z m250.88-65.3312c-105.7792 0-191.7952 86.016-191.7952 191.7952 0 105.7792 86.1184 191.7952 191.7952 191.7952 105.7792 0 191.7952-86.016 191.7952-191.7952 0-105.7792-86.016-191.7952-191.7952-191.7952z m0 350.6176c-87.552 0-158.72-71.3728-158.72-158.8224 0-87.4496 71.168-158.8224 158.72-158.8224 87.4496 0 158.72 71.3728 158.72 158.8224 0 87.4496-71.2704 158.8224-158.72 158.8224z m0.1024-175.104c-9.1136 0-16.4864 7.3728-16.4864 16.4864v98.0992c0 9.1136 7.3728 16.4864 16.4864 16.4864 9.0112 0 16.5888-7.3728 16.5888-16.4864v-98.0992c0-9.1136-7.4752-16.4864-16.5888-16.4864z m79.5648-0.2048h-79.7696c-9.0112 0-16.4864 7.3728-16.4864 16.4864 0 8.9088 7.3728 16.4864 16.4864 16.4864h79.7696c9.0112 0 16.4864-7.4752 16.4864-16.4864-0.1024-9.1136-7.3728-16.4864-16.4864-16.4864zM445.3376 451.2768c-3.4816 0-7.0656 1.1264-10.0352 3.3792-7.168 5.5296-8.6016 15.872-3.072 23.1424L599.04 695.296c5.632 7.2704 15.9744 8.4992 23.1424 3.072 7.168-5.5296 8.6016-15.9744 2.9696-23.1424L458.4448 457.728c-3.2768-4.3008-8.192-6.4512-13.1072-6.4512z m0-320c-9.1136 0-16.4864 7.4752-16.4864 16.6912V462.2336l-163.4304 212.992c-5.5296 7.168-4.096 17.6128 2.9696 23.1424 7.2704 5.4272 17.6128 4.1984 23.1424-3.072l166.8096-217.3952c2.2528-2.8672 3.3792-6.4512 3.3792-10.0352v-319.7952c0.1024-9.216-7.2704-16.7936-16.384-16.7936z m170.9056 315.8016H274.5344c-9.1136 0-16.5888 7.3728-16.5888 16.4864 0 9.1136 7.3728 16.5888 16.5888 16.5888h341.7088c9.0112 0 16.5888-7.3728 16.5888-16.5888 0-9.1136-7.4752-16.4864-16.5888-16.4864zM642.9696 323.584H247.6032c-9.0112 0-16.4864 7.4752-16.4864 16.5888 0 9.1136 7.3728 16.4864 16.4864 16.4864h395.3664c9.1136 0 16.4864-7.3728 16.4864-16.4864 0.1024-9.1136-7.2704-16.5888-16.4864-16.5888z m0 0"  horiz-adv-x="1024" />

    
    <glyph glyph-name="fenlei" unicode="&#58915;" d="M796.672 617.984c0 14.336-11.776 26.112-26.112 26.112H414.208c-14.336 0-26.112-11.776-26.112-26.112s11.776-26.112 26.112-26.112h356.352c14.336 0 26.112 11.776 26.112 26.112zM264.704 618.496c0-14.336 11.776-26.112 26.112-26.112h14.336c14.336 0 26.112 11.776 26.112 26.112s-11.776 26.112-26.112 26.112h-14.336c-14.336 0-26.112-11.776-26.112-26.112zM796.672 421.376c0 14.336-11.776 26.112-26.112 26.112H414.208c-14.336 0-26.112-11.776-26.112-26.112s11.776-26.112 26.112-26.112h356.352c14.336 0 26.112 11.776 26.112 26.112zM264.704 421.888c0-14.336 11.776-26.112 26.112-26.112h14.336c14.336 0 26.112 11.776 26.112 26.112s-11.776 26.112-26.112 26.112h-14.336c-14.336 0-26.112-11.776-26.112-26.112zM264.704 225.28c0-14.336 11.776-26.112 26.112-26.112h14.336c14.336 0 26.112 11.776 26.112 26.112s-11.776 26.112-26.112 26.112h-14.336c-14.336 0-26.112-11.776-26.112-26.112zM796.672 224.768c0 14.336-11.776 26.112-26.112 26.112H414.208c-14.336 0-26.112-11.776-26.112-26.112s11.776-26.112 26.112-26.112h356.352c14.336 0.512 26.112 11.776 26.112 26.112z"  horiz-adv-x="1024" />

    
    <glyph glyph-name="yiwancheng" unicode="&#58912;" d="M903.111111 896H720.483556v-57.827556H903.111111a40.135111 40.135111 0 0 0 40.092445-40.092444v-828.145778a40.135111 40.135111 0 0 0-40.092445-40.092444h-782.222222a40.135111 40.135111 0 0 0-40.106667 40.092444V798.065778A40.135111 40.135111 0 0 0 120.888889 838.158222h176.881778V896H120.903111C66.901333 896 22.954667 852.067556 22.954667 798.065778v-828.145778c0-53.987556 43.946667-97.92 97.948444-97.92h782.222222a98.048 98.048 0 0 1 97.934223 97.934222V798.065778A98.062222 98.062222 0 0 1 903.111111 896zM276.352 425.856l-40.888889-40.888889 202.126222-202.140444 355.384889 355.384889-40.888889 40.888888-314.496-314.481777zM377.073778 896h269.880889v-57.827556H377.073778z"  horiz-adv-x="1024" />

    
    <glyph glyph-name="dingdanshenheyitongguo" unicode="&#59093;" d="M658.832388 438.525737H256.872956c-17.117444 0-30.895985-14.312765-30.895984-32.09799 0-17.762965 13.778541-32.07573 30.895984-32.075731h401.959432c17.139703 0 31.007281 14.312765 31.007282 32.075731 0 17.651668-13.889837 32.09799-31.007282 32.09799zM658.832388 663.278444H256.872956c-8.191443 0-16.071254-3.361163-21.858686-9.371189s-9.059557-14.201468-9.037298-22.726801c0-8.503074 3.249866-16.672257 9.037298-22.704542s13.644985-9.393448 21.836427-9.371188h401.959432c17.139703 0 31.007281 14.401803 31.007281 32.053471s-13.867578 32.120249-30.985022 32.120249zM473.256146 213.77303H256.872956c-17.050666 0-30.873725-14.357284-30.895984-32.031212-0.022259-8.525333 3.249866-16.694516 9.037298-22.726801s13.667244-9.393448 21.858686-9.393448h216.38319c17.117444 0 30.873725 14.357284 30.873725 32.09799-0.022259 17.696187-13.845319 32.031212-30.873725 32.053471zM286.43338-42.454405H141.925647c-52.843709 0-95.848782 44.674525-95.848782 99.543835V748.598551c0 54.891569 43.005074 99.543835 95.848782 99.543836h609.283064c52.865968 0 95.848782-44.674525 95.848783-99.543836v-88.124786c0-13.222057 10.306081-23.928807 23.038432-23.928806 12.710092 0 23.016173 10.70675 23.016173 23.928806V748.598551C893.112099 829.867456 829.472603 896 751.208711 896H141.925647C63.661755 896 0 829.867456 0 748.598551v-691.486861c0-81.246646 63.661755-147.401449 141.903388-147.401449h144.507732c12.710092 0 23.038432 10.729009 23.038433 23.928807s-10.306081 23.906547-23.016173 23.906547zM708.960456-38.002534c2.582085 3.272125 4.14024 5.631617 6.032285 7.657218 82.025723 87.790896 164.095965 175.559533 246.054909 263.439466 9.081817 9.749597 19.232083 15.603808 32.409621 13.555947 13.622725-2.114639 23.10521-10.194785 28.024528-23.884288 4.963836-13.823059 2.314973-26.466373-6.343916-37.751866-1.847526-2.40401-4.006684-4.518649-6.032285-6.722325L737.80858-112.014889c-19.855345-21.257684-38.486425-21.190906-58.475326 0.133556-44.741303 47.768576-89.504866 95.537151-134.179392 143.394764-14.624396 15.648327-15.670586 37.907681-2.804678 53.133081 13.622725 16.093514 36.193711 16.783554 51.129738 1.068449 21.435759-22.526467 42.582146-45.320047 63.795311-68.069108 16.872591-18.119115 33.722923-36.327267 51.686223-55.648387z"  horiz-adv-x="1024" />

    
    <glyph glyph-name="vpn_key" unicode="&#58930;" d="M1019.477 712.629c-8.605 8.607-22.559 8.607-31.165 0l-54.539-54.539-70.123 70.121c-8.607 8.607-22.56 8.607-31.165 0-8.607-8.605-8.607-22.56 0-31.165l70.121-70.121-179.943-179.944c-90.901 75.205-225.804 70.268-310.911-14.84-90.364-90.364-90.364-236.872 0-327.236s236.873-90.364 327.236 0c85.107 85.107 90.045 220.009 14.84 310.911l195.519 195.519c0.003 0.003 0.005 0.005 0.008 0.008s0.005 0.005 0.008 0.008l70.115 70.115c8.605 8.604 8.605 22.559-0.001 31.164zM707.824 136.071c-73.152-73.152-191.753-73.152-264.905 0s-73.152 191.753 0 264.907c73.152 73.152 191.753 73.152 264.905 0 73.152-73.153 73.152-191.756 0-264.907z"  horiz-adv-x="1366" />

    
    <glyph glyph-name="shenheweitongguo" unicode="&#59006;" d="M714.804 356.448c16.624 0 30.544 14.104 30.544 31 0 16.888-13.92 30.968-30.544 30.968H317.1c-16.624 0-30.544-14.08-30.544-30.968 0-16.888 13.92-31 30.544-31H714.804zM317.092 176.344c-16.624 0-30.544-14.112-30.544-31s13.92-31 30.544-31h159.088c16.624 0 30.544 14.08 30.544 31 0 16.856-13.92 31-30.544 31H317.092z m0 422.216H714.788c16.624 0 30.544 14.072 30.544 30.968 0 16.888-13.92 31-30.544 31H317.1c-16.624 0-30.544-14.072-30.544-31-0.008-16.896 13.912-30.968 30.536-30.968z m533.904-537.928l113.808 114.528a28.688 28.688 0 0 1 0 40.312l-7.344 7.36a28.16 28.16 0 0 1-40.016 0L803.644 108.288 689.86 222.792a28.144 28.144 0 0 1-40.016 0l-7.312-7.36a28.632 28.632 0 0 1 0-40.312l113.76-114.496-113.792-114.528a28.68 28.68 0 0 1 0-40.304l7.312-7.36a28.144 28.144 0 0 1 40.016 0l113.816 114.536 113.832-114.568a28.2 28.2 0 0 1 40.016 0l7.344 7.424a28.608 28.608 0 0 1 0 40.248l-113.84 114.56z m103.96 762.72c-17.704 30.168-45.392 51.632-77.432 63.984C856.132 895.656 833.596 895.88 811.092 895.88H216.108c-19.8 0-38.936 0.096-58.424-4.896C93.764 874.664 47.996 812.864 47.996 746.48v-720.4c0-43.384 15.832-85.256 47.936-114.752 26.032-23.928 58.928-37.112 93.896-39 6.864-0.384 13.792-0.128 20.632-0.128h265.76c16.624 0 30.544 14.112 30.544 31 0 16.888-13.92 31-30.544 31H195.516a126.712 126.712 0 0 0-11.376 0.544l1.52-0.2-4.6 0.552c1.016-0.128 2.032-0.256 3.08-0.352-0.664 0.096-1.336 0.192-1.84 0.288a112.36 112.36 0 0 0-20.72 5.888c0.192-0.064 0.352-0.16 0.544-0.256 5.752-2.624-6.992 2.752-1.08 0.48a3.808 3.808 0 0 0 0.568-0.224c-1.336 0.672-2.672 1.312-4.008 2.016a124.56 124.56 0 0 0-8.712 4.992c-1.496 0.928-6.52 4.672-7.536 5.376 0.92-0.8 1.904-1.632 2.896-2.432-2.864 2.272-3.432 2.784-2.896 2.432-4.136 3.52-7.944 7.36-11.568 11.424-0.952 1.088-1.904 2.24-2.864 3.36l0.352-0.512c3.688-5.056-4.672 5.824-0.696 0.928a5.568 5.568 0 0 0 0.384-0.448 114.216 114.216 0 0 0-11.28 19.616c0.32-0.768 0.608-1.568 0.92-2.368-3.024 7.36-1.904 4.64-0.92 2.368a32.64 32.64 0 0 0-0.856 2.432 116.328 116.328 0 0 0-4.64 17.56c0-0.416-0.192 0.576-0.728 4.32 0.224-1.44 0.48-2.88 0.728-4.32-0.032 0.8-0.76 6.72-0.856 8.48a104.072 104.072 0 0 0-0.128 5.472V746.552c0 2.4 0.096 4.8 0.224 7.232a31.096 31.096 0 0 0 0.224 4.544l-0.096-0.48c-1.016-6.528 0.792 7.84 0.16 1.248 0-0.256-0.032-0.512-0.064-0.768 1.176 7.264 3.144 14.368 5.624 21.304 0.128 0.256 0.256 0.64 0.416 1.024-0.32-0.672-0.664-1.376-0.92-2.08l1.928 4.528-1.008-2.448c0.416 0.832 0.76 1.696 1.176 2.56a125.816 125.816 0 0 0 10.016 16.928c-0.128-0.224-0.256-0.384-0.384-0.544-3.912-4.928 4.352 6.08 0.728 0.928-0.128-0.16-0.224-0.32-0.352-0.448 1.304 1.568 2.64 3.104 3.976 4.608a113.6 113.6 0 0 0 7.024 7.136c1.016 0.96 4.384 3.712 5.656 4.8-0.984-0.704-1.936-1.376-2.92-2.112 3.592 2.752 3.88 2.944 2.92 2.112 4.928 3.52 10.144 6.656 15.544 9.376 0.664 0.352 1.368 0.672 2.064 1.024-0.384-0.16-0.76-0.352-1.112-0.48-1.048-0.48-1.624-0.704 0 0 0.696 0.32 1.872 0.832 3.624 1.664-0.824-0.416-1.688-0.8-2.48-1.184 0.512 0.224 1.016 0.448 1.432 0.608 3.176 1.248 6.424 2.24 9.696 3.2a119.944 119.944 0 0 0 11.216 2.496c-0.792-0.064-1.656-0.16-2.448-0.256 8.232 1.088 4.928 0.672 2.448 0.256 1.528 0.16 3.048 0.288 4.544 0.384 2.864 0.192 5.72 0.192 8.584 0.192h633.92c3.304 0 6.584-0.256 9.888-0.576-0.192 0-0.352 0.064-0.512 0.064-6.424 1.056 7.72-0.8 1.208-0.16-0.256 0.032-0.48 0.032-0.696 0.064a122.816 122.816 0 0 0 16.152-4.032c1.336-0.448 5.432-2.08 7.024-2.688-1.08 0.512-2.16 1.056-3.272 1.536 4.224-1.856 4.48-2.016 3.272-1.536 5.464-2.656 10.68-5.76 15.704-9.184 0.6-0.416 1.144-0.832 1.752-1.248-0.512 0.384-0.984 0.768-1.336 1.024 0.568-0.416 1.656-1.248 3.624-2.72a105.176 105.176 0 0 1-2.288 1.696c0.504-0.384 0.952-0.768 1.304-1.056 2.544-2.144 4.96-4.448 7.312-6.816 2.352-2.368 4.608-4.864 6.736-7.424 0.192-0.224 0.448-0.512 0.664-0.8-0.416 0.608-0.824 1.216-1.304 1.824 4.896-6.496 2.832-3.712 1.304-1.824 0.856-1.216 1.752-2.464 2.544-3.68 2.992-4.448 5.536-9.152 7.824-13.984-0.032 0.224 0.416-0.704 1.808-3.872a94.712 94.712 0 0 1-1.808 3.872c0.128-0.48 2.384-6.016 2.952-7.68 1.24-3.84 2.192-7.776 3.08-11.712 0.352-1.536 0.64-3.136 0.856-4.672-0.032 0.256-0.032 0.512-0.064 0.768-0.728 6.592 1.272-7.744 0.16-1.248l-0.096 0.48c0.352-3.328 0.504-6.656 0.568-9.984 0.032-0.832 0.032-1.664 0.032-2.528V306.704c0-16.888 13.888-31 30.544-31 16.624 0 30.512 14.072 30.512 31V745.936a154 154 0 0 1-21.056 77.416z"  horiz-adv-x="1024" />

    
    <glyph glyph-name="fanhui" unicode="&#58880;" d="M532.526499-8.817574L139.506311 384.202615 532.526499 777.222803c12.258185 12.258185 12.432147 32.892131-0.187265 45.51052-12.707416 12.707416-32.995485 12.703323-45.511543 0.187265L75.166957 411.260877c-7.120165-7.120165-10.163477-17.065677-8.990768-26.624381-1.500167-9.755178 1.5104-20.010753 8.990768-27.491121l411.660734-411.660734c12.258185-12.258185 32.892131-12.432147 45.511543 0.187265 12.707416 12.707416 12.7023 32.995485 0.187265 45.51052z"  horiz-adv-x="1024" />

    
    <glyph glyph-name="mail" unicode="&#58917;" d="M896.382461 702.28609H127.617539c-35.776831 0-64.884776-29.106922-64.884776-64.883753v-509.024225c0-35.776831 29.106922-64.883753 64.884776-64.883753h768.763898c35.776831 0 64.883753 29.106922 64.883753 64.883753v509.023202c0.001023 35.777855-29.105898 64.884776-64.882729 64.884776z m23.951505-573.909002c0-0.25378-0.011256-0.50449-0.019443-0.756223L635.533524 411.812439l284.800442 211.878618v-495.313969z m-816.667932 0V625.308905l285.005103-213.291805L103.685477 127.614725c-0.008186 0.25378-0.019443 0.506537-0.019443 0.762363zM419.255713 384.712221a20.520359 20.520359 0 0 1 2.266623 2.719948l47.831378-35.795251c12.561084-9.401114 27.613918-14.098089 42.661636-14.098089 15.032368 0 30.05962 4.689812 42.583864 14.063297L602.577948 387.295046a20.454868 20.454868 0 0 1 2.165316-2.582825l280.866852-280.286638H138.393977L419.255713 384.712221z m477.126748 276.641621c1.793856 0 3.539616-0.204661 5.220908-0.580215L530.120706 384.406253c-10.670014-7.985882-25.572422-7.983835-36.242435 0L124.155694 661.100062a23.99346 23.99346 0 0 0 3.461845 0.25378h768.764922z"  horiz-adv-x="1024" />

    
    <glyph glyph-name="duihao" unicode="&#58882;" d="M511.704776-63.477474c-246.876714 0-447.716928 200.840214-447.716928 447.708741 0 246.871597 200.840214 447.716928 447.716928 447.716928 246.87876 0 447.717951-200.845331 447.717951-447.716928-0.001023-246.86955-200.839191-447.708741-447.717951-447.708741z m0 850.208838c-221.941811 0-402.50726-180.564425-402.50726-402.506237s180.565449-402.492934 402.50726-402.492933 402.508283 180.551122 402.508284 402.492933S733.645564 786.731364 511.704776 786.731364zM426.658821 188.03584L242.867912 360.134453l39.994899 39.994899 143.568836-141.899824L740.549811 580.433858l39.99183-39.9949s-346.378915-352.399025-353.88282-352.403118z"  horiz-adv-x="1024" />

    
    <glyph glyph-name="suo" unicode="&#58909;" d="M766.146786 510.748268v69.309476c0 140.360178-113.786608 254.146786-254.146786 254.146786S257.853214 720.425146 257.853214 580.064969v-69.309476c-51.037437 0-92.415043-41.377605-92.415043-92.415043v-369.667396c0-51.037437 41.377605-92.415043 92.415043-92.415042h508.293572c51.037437 0 92.415043 41.377605 92.415043 92.415042V418.333225c0 51.037437-41.377605 92.415043-92.415043 92.415043z m-462.082438 69.316701c0 114.841459 93.094193 207.935652 207.935652 207.935652s207.935652-93.094193 207.935652-207.935652v-69.309476h-415.871304v69.309476z m508.293572-531.39914a46.211134 46.211134 0 0 0-46.211134-46.211133H257.853214a46.211134 46.211134 0 0 0-46.211134 46.211133V418.333225a46.211134 46.211134 0 0 0 46.211134 46.211134h508.293572a46.211134 46.211134 0 0 0 46.211134-46.211134v-369.667396zM512 372.122091a69.309476 69.309476 0 0 1-69.309476-69.309475c0-30.164397 19.305214-55.762591 46.211134-65.285148v-96.446596h46.211134V237.527468c26.90592 9.522557 46.211134 35.120751 46.211134 65.285148-0.01445 38.278078-31.045848 69.309476-69.323926 69.309475z m0-92.415042a23.105567 23.105567 0 1 0 0 46.218358 23.105567 23.105567 0 0 0 0-46.218358z"  horiz-adv-x="1024" />

    
    <glyph glyph-name="erji" unicode="&#58914;" d="M662.58944 896C178.95936 896 180.70528 455.98208 180.70528 455.98208v-230.88128S150.83008 235.52 122.04032 235.52C0 235.52 0 172.032 0 172.032v-227.02592S16.68608-128 122.04032-128c105.34912 0 119.1424 73.00608 119.1424 73.00608V456.09984s-20.3008 372.43904 421.40672 372.43904 422.60992-372.43904 422.60992-372.43904v-511.09376S1094.71232-128 1205.18656-128c110.4128 0 119.99744 73.00608 119.99744 73.00608V172.032s0 65.47456-119.99744 65.47456c-33.60256 0-60.70784-10.4192-60.70784-10.4192V455.98208c-0.00512 0 1.7408 440.01792-481.88928 440.01792M301.17888 200.58624v-295.69536c0-0.06656 0-32.88576 30.11584-32.88576 30.12096 0 30.12096 32.8192 30.12096 32.8192v295.69536c0 0.06656 0 32.896-30.12096 32.896-30.11584 0-30.11584-32.82944-30.11584-32.82944M963.7632 200.58624v-295.69536s0-32.82944 30.11584-32.82944c30.12096 0 30.12096 32.82944 30.12096 32.82944v295.69536s0 32.82944-30.12096 32.82944c-30.11584 0-30.11584-32.82944-30.11584-32.82944"  horiz-adv-x="1325" />

    
    <glyph glyph-name="barrage" unicode="&#59107;" d="M288 320h128a32 32 0 0 1 0 64H288a32 32 0 0 1 0-64M288 192h128a32 32 0 0 1 0 64H288a32 32 0 0 1 0-64M288 448h256a32 32 0 0 1 0 64H288a32 32 0 0 1 0-64M831.936 128L192 127.776V640.224L192.096 640 832 640.224 831.936 128z m0 576H192.096A64 64 0 0 1 128 640.224v-512.448A64 64 0 0 1 192.096 64h639.84A64 64 0 0 1 896 127.776V640.224A64 64 0 0 1 831.936 704z"  horiz-adv-x="1024" />

    
    <glyph glyph-name="businesscard" unicode="&#59110;" d="M736 544h-192a32 32 0 1 1 0-64h192a32 32 0 1 1 0 64M736 416h-128a32 32 0 1 1 0-64h128a32 32 0 1 1 0 64M736 288h-128a32 32 0 1 1 0-64h128a32 32 0 1 1 0 64M831.936 128L192 127.776 192.096 640 832 640.224l0.224-512.192-0.32-0.032m0 576H192.128A64.032 64.032 0 0 1 128 640.224v-512.448C128 92.64 156.768 64 192.096 64h639.84A64 64 0 0 1 896 127.776V640.224A64 64 0 0 1 831.936 704M480 273.856H288v20.736c20.64 8.32 63.84 23.04 96 23.04 31.744 0 74.656-14.496 96-23.072v-20.704zM355.36 454.4c0 14.368 11.232 25.6 25.504 25.6a25.6 25.6 0 0 0 25.504-25.6v-41.92a25.28 25.28 0 0 0-25.504-25.632 25.6 25.6 0 0 0-25.504 25.6V454.4z m157.088-104a483.2 483.2 0 0 1-53.664 18.88c7.168 12.864 11.584 27.456 11.584 43.2V454.4c0 49.408-40.16 89.6-89.504 89.6a89.664 89.664 0 0 1-89.504-89.6v-41.92c0-16.352 4.736-31.52 12.416-44.736-26.56-8-46.272-16.512-47.296-16.992A53.152 53.152 0 0 1 224 302.4v-55.904l1.696-4.992c6.464-18.976 24.032-31.68 43.712-31.68h229.184a45.44 45.44 0 0 1 45.28 42.016L544 302.4c0 20.576-13.28 40.416-31.552 47.968z"  horiz-adv-x="1024" />

    
    <glyph glyph-name="close" unicode="&#59113;" d="M544.448 396.8l284.576 284.576a32 32 0 0 1-45.248 45.248L499.2 442.048 214.624 726.624a32 32 0 0 1-45.248-45.248l284.576-284.576-284.576-284.576a32 32 0 0 1 45.248-45.248l284.576 284.576 284.576-284.576a31.904 31.904 0 0 1 45.248 0 32 32 0 0 1 0 45.248L544.448 396.8z"  horiz-adv-x="1024" />

    
    <glyph glyph-name="jiedanbaozhengjin" unicode="&#58997;" d="M512.012224 896C229.719142 896 0.012224 666.317529 0.012224 384.024447s229.706919-512 512-512c77.302392 0 151.548871 16.795302 220.710309 49.896959a12.223655 12.223655 0 0 1-10.561238 22.051473 482.663229 482.663229 0 0 0-210.173519-47.501122C243.165163-103.552691 24.459533 115.177386 24.459533 384.024447 24.459533 652.847061 243.165163 871.552691 512.012224 871.552691c268.822614 0 487.503796-218.70563 487.503796-487.528244 0-81.825144-20.682424-162.794633-59.798119-234.180776a12.223655 12.223655 0 0 1 21.44029-11.759156 512.90455 512.90455 0 0 1 62.805138 245.939932C1023.987776 666.317529 794.305305 896 512.012224 896zM764.45514 371.55632h-189.124385c7.896481 14.815069 14.203887 27.649907 19.117796 38.895669a12.17476 12.17476 0 0 1 0.953445 3.642649h163.014659a12.223655 12.223655 0 0 1 12.223654 12.223655v24.153941a12.223655 12.223655 0 0 1-12.223654 12.223655h-92.801987c11.53913 18.017667 22.956023 38.211145 33.370578 56.619968l5.794012 10.218976a12.17476 12.17476 0 0 1-1.00234 13.568256h39.237932a12.223655 12.223655 0 0 1 12.223655 12.223655v23.616101a12.223655 12.223655 0 0 1-12.223655 12.223655h-124.045648a398.980089 398.980089 0 0 1-33.003868 54.273026 12.419233 12.419233 0 0 1-12.394785 4.767226l-23.616101-4.938357a12.223655 12.223655 0 0 1-7.700903-18.677744c6.747457-10.316765 14.277229-23.053813 20.951344-35.424151H450.331662a12.223655 12.223655 0 0 1-12.223655-12.223655v-23.616101a12.223655 12.223655 0 0 1 12.223655-12.223655h33.810629a12.199207 12.199207 0 0 1-2.346942-17.137564c15.181779-19.924557 30.485795-44.934155 38.993459-63.294083h-91.872989a12.223655 12.223655 0 0 1-12.223655-12.223655v-24.153942a12.223655 12.223655 0 0 1 12.223655-12.223654h113.48441a931.68696 931.68696 0 0 0-21.880342-42.538319h-91.066227l-0.048895 0.317815-4.400515 25.254071a12.223655 12.223655 0 0 1-16.208566 9.387767c-12.54147-4.571647-25.058492-9.118846-37.404384-13.494915V490.419138h49.285776a12.223655 12.223655 0 0 1 12.223655 12.223654v24.71623a12.223655 12.223655 0 0 1-12.223655 12.223655h-49.285776v101.994174a12.223655 12.223655 0 0 1-12.223654 12.223655h-25.254071a12.223655 12.223655 0 0 1-12.223655-12.223655v-101.994174h-56.962231a12.223655 12.223655 0 0 1-12.223654-12.223655v-24.71623a12.223655 12.223655 0 0 1 12.223654-12.223654h56.962231v-114.095593a1671.609225 1671.609225 0 0 0-67.499021-21.733658 12.223655 12.223655 0 0 1-8.26319-15.475147l8.238743-25.816359a12.272549 12.272549 0 0 1 15.670725-7.823139l51.852743 17.968773-0.073342-141.549922a759.822375 759.822375 0 0 0-45.618679 0.195579 12.223655 12.223655 0 0 1-11.392446-17.35759c3.129256-6.747457 6.45409-16.648618 7.285298-21.586974a12.223655 12.223655 0 0 1 11.832498-10.218975c33.786182-0.63563 51.461586 0.63563 65.298763 5.573986 15.695173 7.431982 22.369288 19.606742 22.369288 40.70477v161.107769l39.237932 14.057203v-19.191138a12.223655 12.223655 0 0 1 12.223654-12.223654h68.428019a551.360168 551.360168 0 0 0-37.306594-53.148451 12.272549 12.272549 0 0 1 6.160722-19.411164c31.219214-8.923268 63.269637-19.90011 93.95101-32.123764-36.010887-17.650957-82.216301-29.752375-140.37645-36.793201a12.199207 12.199207 0 1 1-7.969823-19.875662c4.18049-5.109488 8.703242-13.568257 10.341212-19.240033 1.662417-5.867354 7.309745-9.436661 13.519362-8.727689 77.669102 11.343552 137.027169 31.219214 181.227904 60.727116 46.15652-21.024686 85.272215-42.660555 110.697417-61.24051a12.125865 12.125865 0 0 1 15.964093 1.320155l19.777873 20.315714a12.248102 12.248102 0 0 1-1.760206 18.555508c-26.158621 18.26214-62.24285 38.088908-102.849831 56.546626 22.735998 25.082939 39.409063 55.739865 50.70372 93.070907h61.069379a12.223655 12.223655 0 0 1 12.223655 12.223655v24.153942a12.199207 12.199207 0 0 1-12.199208 12.248102z m-196.287447 102.84983c-8.189849 19.631189-24.887361 46.865492-41.951583 68.745834h128.5684a604.581961 604.581961 0 0 0-46.523229-80.431648h-41.340401a12.223655 12.223655 0 0 1 1.246813 11.685814z m34.544048-222.837225a1340.445972 1340.445972 0 0 1-82.289643 29.459008 763.489471 763.489471 0 0 1 26.98983 41.927136h102.140858c-11.147973-29.361219-26.329752-52.439479-46.841045-71.386144zM850.998615 25.455761m-63.000716 0a63.000716 63.000716 0 1 1 126.001433 0 63.000716 63.000716 0 1 1-126.001433 0Z"  horiz-adv-x="1024" />

    
    <glyph glyph-name="document" unicode="&#58911;" d="M166.4 825.6v-883.2h691.2v641.4l-5.4 6-230.4 230.4-6 5.4h-449.4zM204.8 787.2h384v-230.4h230.4v-576h-614.4v806.4zM627.2 759.6l164.4-164.4h-164.4v164.4z"  horiz-adv-x="1024" />

    
    <glyph glyph-name="cloud-test" unicode="&#58983;" d="M512-108.736C240.32-108.736 19.264 112.32 19.264 384S240.32 876.736 512 876.736c271.744 0 492.736-221.056 492.736-492.736S783.744-108.736 512-108.736zM512 813.44C275.2 813.44 82.56 620.8 82.56 384S275.2-45.504 512-45.504c236.864 0 429.504 192.704 429.504 429.504S748.864 813.44 512 813.44zM303.424 489.664c27.2-22.016 52.992-43.84 77.248-65.536-8.448-8.768-17.856-19.008-28.224-30.656a2176.064 2176.064 0 0 1-72.832 69.44l23.808 26.752z m40.32-140.416c15.552-8.064 28.352-14.08 38.4-17.92a13726.144 13726.144 0 0 1-47.104-179.264l-39.872 18.432a1356.8 1356.8 0 0 1 48.576 178.752z m-18.496 265.28c19.776-16.512 44.352-38.848 73.856-67.008-10.688-10.368-20.416-20.096-29.184-29.184-23.616 26.24-46.912 50.176-69.952 71.936l25.28 24.256z m158.848-93.248h35.52v-120.512c0-49.28-4.544-88.768-13.632-118.528 42.112-32.384 78.72-61.504 109.76-87.424l-26.24-29.696a1890.56 1890.56 0 0 1-96.128 84.544c-20.032-39.808-56.192-74.944-108.352-105.408a387.2 387.2 0 0 1-23.808 31.104c48.256 27.904 81.344 58.752 99.136 92.736 15.808 29.504 23.744 73.408 23.744 131.648V521.28zM408.32 597.056h183.168v-307.008h-35.008V563.008H443.328v-273.024H408.32V597.056z m300.672 26.688h35.52v-413.376c0-37.248-17.984-55.872-53.888-55.872-15.616 0-33.984 0.32-55.424 1.024a386.56 386.56 0 0 1-6.784 39.744c20.736-2.24 38.4-3.392 52.992-3.392 18.432 0 27.648 9.28 27.648 27.712V623.744z m-41.728-361.408h-33.984V584.384h33.984v-322.048z"  horiz-adv-x="1024" />

    
    <glyph glyph-name="shouhuodizhi" unicode="&#59078;" d="M952.561455 86.667056l-12.213449-16.002794c96.717107-14.819718 162.77178-49.955581 162.77178-78.430701 0-48.925079-135.974978-97.019754-303.717929-97.019754-167.74045 0-303.716678 48.094675-303.716678 97.019754 0 26.893099 65.834565 63.52344 162.30155 78.363168l-11.84827 16.054069c-104.468382-19.085546-175.763107-57.007766-175.763108-100.744069 0-62.904388 147.31175-113.892973 329.027757-113.892972 181.714756 0 329.027756 50.988585 329.027756 113.892972 0 43.746307-71.340997 81.683535-175.869409 100.760327zM1141.083277 554.319831C1141.083277 743.02174 988.11127 896 799.401857 896 610.694945 896 457.722939 743.02174 457.722939 554.319831c0-188.70441 341.678918-620.088271 341.678918-620.08827s341.68142 431.38386 341.68142 620.08827zM799.401857 870.162416c174.728854 0 316.370342-141.642739 316.370342-316.370342S799.401857-28.328954 799.401857-28.328954s-316.369091 407.397177-316.369091 582.121028S624.674254 870.162416 799.401857 870.162416zM989.226813 552.208803c0 104.837312-84.987644 189.824956-189.824956 189.824956S609.579402 657.046115 609.579402 552.208803c0-104.836062 84.986394-189.824956 189.823706-189.824956s189.823706 84.988895 189.823705 189.824956z m-354.337584 0c0 90.858003 73.655875 164.513878 164.512628 164.513878 90.858003 0 164.513878-73.655875 164.513878-164.513878S890.25986 387.694925 799.401857 387.694925c-90.856753 0-164.512628 73.655875-164.512628 164.513878z"  horiz-adv-x="1600" />

    
    <glyph glyph-name="renzheng" unicode="&#58889;" d="M501.44-41.536l-6.528 2.944c-12.8 5.76-313.536 142.592-313.536 318.72V716.096H346.24l155.392 94.656 155.264-94.656H805.44v-32H647.872l-146.24 89.216-146.368-89.216H213.376v-403.968c0-142.656 244.608-265.664 288.064-286.464 43.456 20.736 288.064 144 288.064 286.464v218.56h32v-218.56c0-176.192-300.736-313.024-313.536-318.72l-6.528-2.944zM505.024 275.968L334.08 446.784l22.592 22.656L504.96 321.344l289.152 291.2 22.784-22.592z"  horiz-adv-x="1024" />

    
    <glyph glyph-name="ziliao" unicode="&#58918;" d="M922.825258 85.476397l1.41751-1.141883-71.741743-71.741743a7.560052 7.560052 0 0 0-0.984381-1.417509c-1.299384-1.535636-2.598768-3.110646-4.016278-4.567532l-120.842705-124.386479c-10.001319-7.3238-18.585128-10.119444-26.027054-10.119444-14.726351 0-24.885171 10.946325-32.484598 19.136381l-5.07941 5.433787-144.231615 150.492284 31.657717 32.130221 149.862279-156.477325a28.38957 28.38957 0 0 0 1.496261-1.653761l25.869552 27.72019 88.869986 90.720623-3.307523 14.017596 18.309501 1.299384 29.255826 29.531453-0.866256 1.141883 171.597428 176.440586 31.460841-32.366472-140.215338-144.19224z m20.593267 660.992664c0.039375 19.923887 0.039375 40.477778-4.685658 51.975357-8.07193 19.451384-23.703913 37.327756-38.902767 44.494056-4.41003 2.086889-9.528815 3.6619-14.096347 5.118785l-2.283765 0.74813a30.63396 30.63396 0 0 0-8.898811 1.260008H112.836571a40.123401 40.123401 0 0 0-9.292564-1.535635l-1.968763-0.472503c-4.567531-1.456885-9.686317-3.031896-14.056972-5.118785-15.23823-7.166299-30.870212-25.042672-38.902767-44.494056-4.134403-9.922568-3.976902-27.995817-3.858777-45.439062l0.078751-128.087755-0.078751-584.76214c-0.118126-27.168937-0.275627-52.841613 6.969423-69.221726 8.820061-19.923887 29.216451-35.910247 56.03101-43.824676 4.882534-1.456885 14.56885-1.338759 22.325778-1.260008l6.024417 0.039375h341.816722v-45.754064l-347.368635-0.078751h-6.457545c-9.48944 0-19.569509 0.393753-28.625821 3.071271-39.335895 11.615705-70.048606 36.737127-84.263079 68.867348-11.261327 25.515175-11.103826 56.070385-10.946325 88.436858l0.039375 169.392413L0.262673 752.650979c-0.157501 22.168277-0.354377 45.045309 7.441926 63.748562 12.40321 30.043331 35.870871 56.188511 61.228545 68.119218 5.985041 2.835019 12.993839 5.197536 19.333258 7.24505l2.16564 0.669379a37.918385 37.918385 0 0 0 7.953805 1.614387l2.283765 1.771887h785.930397l2.283766-1.771887a37.918385 37.918385 0 0 0 8.150681-1.653762l2.008139-0.630004c6.339419-2.047514 13.387592-4.41003 19.372633-7.24505 25.278924-11.930707 48.746585-38.036511 61.228545-68.158593 8.308182-20.081388 8.308182-45.439062 8.268807-69.891105v-431.946716h-44.494055V746.469061zM296.876585 222.344837h213.37459v-45.754064H296.876585v45.754064z m0 438.955514h396.312096v-45.754064H296.876585V661.300351z m396.312096-265.231821H296.876585v45.754064h396.312096v-45.754064z"  horiz-adv-x="1063" />

    


  </font>
</defs>
</svg>
